<svg viewBox="0 0 360.35 167.24" xmlns="http://www.w3.org/2000/svg" xmlns:xlink="http://www.w3.org/1999/xlink" id="Ebene_1" overflow="hidden"><path d="M10.66 164.61C8.7 163.95 6.99 162.88 5.51 161.4 4.04 159.93 2.88 157.99 2.04 155.58 1.2 153.17 0.77 150.23 0.77 146.74 0.77 143.26 1.19 140.31 2.04 137.9 2.88 135.49 4.04 133.55 5.51 132.08 6.98 130.61 8.7 129.54 10.66 128.87 12.62 128.21 14.71 127.87 16.94 127.87L30.95 127.87 30.95 134.34 18.01 134.34C16.68 134.34 15.42 134.54 14.24 134.93 13.05 135.33 12.02 136 11.14 136.95 10.26 137.9 9.57 139.17 9.07 140.75 8.57 142.33 8.32 144.32 8.32 146.73 8.32 149.14 8.57 151.13 9.07 152.71 9.57 154.29 10.26 155.56 11.14 156.51 12.02 157.46 13.05 158.14 14.24 158.53 15.43 158.93 16.68 159.12 18.01 159.12L30.94 159.12 30.94 165.59 16.94 165.59C14.71 165.6 12.62 165.27 10.66 164.61Z"/><path d="M36.33 127.89 43.87 127.89 43.87 150.52C43.87 152.17 44.12 153.55 44.62 154.64 45.12 155.74 45.81 156.62 46.69 157.28 47.57 157.95 48.6 158.42 49.79 158.71 50.98 159 52.23 159.14 53.56 159.14L63.26 159.14 63.26 165.61 53.56 165.61C51.19 165.61 48.96 165.36 46.88 164.86 44.8 164.36 42.97 163.51 41.41 162.33 39.85 161.15 38.61 159.59 37.69 157.67 36.77 155.75 36.32 153.37 36.32 150.53L36.32 127.89Z"/><path d="M65.32 146.75C65.32 143.12 65.8 140.05 66.75 137.54 67.7 135.03 69 133 70.66 131.45 72.31 129.91 74.25 128.79 76.48 128.11 78.71 127.43 81.09 127.09 83.65 127.09 86.13 127.09 88.48 127.43 90.71 128.11 92.94 128.79 94.89 129.91 96.56 131.45 98.23 132.99 99.55 135.02 100.52 137.54 101.49 140.05 101.97 143.13 101.97 146.75 101.97 150.38 101.48 153.45 100.52 155.96 99.55 158.47 98.23 160.5 96.56 162.05 94.89 163.59 92.94 164.71 90.71 165.39 88.48 166.07 86.13 166.41 83.65 166.41 81.1 166.41 78.71 166.07 76.48 165.39 74.25 164.71 72.31 163.59 70.66 162.05 69.01 160.51 67.7 158.48 66.75 155.96 65.79 153.45 65.32 150.37 65.32 146.75ZM83.63 159.95C85.1 159.95 86.49 159.74 87.81 159.33 89.12 158.92 90.26 158.21 91.23 157.2 92.2 156.2 92.97 154.84 93.55 153.13 94.12 151.42 94.41 149.3 94.41 146.75 94.41 144.2 94.12 142.07 93.55 140.37 92.97 138.66 92.2 137.31 91.23 136.3 90.26 135.29 89.12 134.59 87.81 134.17 86.5 133.76 85.11 133.55 83.63 133.55 82.12 133.55 80.71 133.76 79.4 134.17 78.09 134.58 76.95 135.29 75.98 136.3 75.01 137.31 74.25 138.66 73.69 140.37 73.13 142.08 72.86 144.2 72.86 146.75 72.86 149.3 73.14 151.43 73.69 153.13 74.25 154.84 75.01 156.19 75.98 157.2 76.95 158.21 78.09 158.92 79.4 159.33 80.71 159.74 82.12 159.95 83.63 159.95Z"/><path d="M106.26 127.89 113.8 127.89 113.8 149.98C113.8 151.88 114.05 153.47 114.55 154.75 115.05 156.03 115.74 157.05 116.62 157.82 117.5 158.59 118.52 159.14 119.69 159.46 120.86 159.78 122.12 159.95 123.49 159.95 124.82 159.95 126.07 159.79 127.23 159.46 128.4 159.14 129.42 158.59 130.3 157.82 131.18 157.05 131.88 156.02 132.4 154.75 132.92 153.48 133.18 151.89 133.18 149.98L133.18 127.89 140.72 127.89 140.72 149.98C140.72 153.1 140.26 155.72 139.35 157.82 138.43 159.92 137.2 161.61 135.63 162.88 134.07 164.16 132.24 165.06 130.16 165.6 128.08 166.14 125.85 166.41 123.48 166.41 121.11 166.41 118.87 166.14 116.77 165.6 114.67 165.06 112.84 164.15 111.27 162.88 109.71 161.61 108.48 159.92 107.58 157.82 106.68 155.72 106.23 153.11 106.23 149.98L106.23 127.89Z"/><path d="M146.67 127.89 164.99 127.89C167.22 127.89 169.31 128.22 171.27 128.89 173.23 129.56 174.94 130.62 176.42 132.1 177.89 133.57 179.05 135.51 179.9 137.92 180.74 140.33 181.17 143.27 181.17 146.76 181.17 150.24 180.75 153.19 179.9 155.6 179.06 158.01 177.9 159.95 176.42 161.42 174.95 162.89 173.23 163.96 171.27 164.63 169.31 165.3 167.22 165.63 164.99 165.63L146.67 165.63 146.67 127.89ZM163.91 159.14C165.24 159.14 166.5 158.94 167.68 158.55 168.87 158.16 169.9 157.48 170.78 156.53 171.66 155.58 172.35 154.31 172.85 152.73 173.35 151.15 173.6 149.16 173.6 146.75 173.6 144.34 173.35 142.35 172.85 140.77 172.35 139.19 171.66 137.92 170.78 136.97 169.9 136.02 168.87 135.35 167.68 134.95 166.5 134.55 165.24 134.36 163.91 134.36L154.21 134.36 154.21 159.14 163.91 159.14Z"/><path d="M194.27 164.61C192.31 163.95 190.6 162.88 189.12 161.4 187.65 159.93 186.49 157.99 185.65 155.58 184.81 153.17 184.38 150.23 184.38 146.74 184.38 143.26 184.8 140.31 185.65 137.9 186.49 135.49 187.65 133.55 189.12 132.08 190.59 130.61 192.31 129.54 194.27 128.87 196.23 128.21 198.32 127.87 200.55 127.87L214.56 127.87 214.56 134.34 201.63 134.34C200.45 134.34 199.33 134.49 198.29 134.8 197.25 135.11 196.31 135.61 195.46 136.31 194.62 137.01 193.9 137.94 193.31 139.11 192.72 140.28 192.31 141.74 192.1 143.5L214.57 143.5 214.57 149.96 192.1 149.96C192.32 151.72 192.72 153.18 193.31 154.35 193.9 155.52 194.62 156.45 195.46 157.15 196.3 157.85 197.25 158.35 198.29 158.66 199.33 158.97 200.45 159.12 201.63 159.12L214.56 159.12 214.56 165.59 200.55 165.59C198.31 165.6 196.22 165.27 194.27 164.61Z"/><path d="M231.04 134.36 217.57 134.36 217.57 127.89 252.05 127.89 252.05 134.36 238.58 134.36 238.58 165.61 231.04 165.61 231.04 134.36Z"/><path d="M263.33 164.61C261.37 163.95 259.66 162.88 258.18 161.4 256.71 159.93 255.55 157.99 254.71 155.58 253.87 153.17 253.44 150.23 253.44 146.74 253.44 143.26 253.86 140.31 254.71 137.9 255.55 135.49 256.71 133.55 258.18 132.08 259.65 130.61 261.37 129.54 263.33 128.87 265.29 128.21 267.38 127.87 269.61 127.87L283.62 127.87 283.62 134.34 270.69 134.34C269.51 134.34 268.39 134.49 267.35 134.8 266.31 135.11 265.37 135.61 264.52 136.31 263.68 137.01 262.96 137.94 262.37 139.11 261.78 140.28 261.37 141.74 261.16 143.5L283.63 143.5 283.63 149.96 261.16 149.96C261.38 151.72 261.78 153.18 262.37 154.35 262.96 155.52 263.68 156.45 264.52 157.15 265.36 157.85 266.31 158.35 267.35 158.66 268.39 158.97 269.51 159.12 270.69 159.12L283.62 159.12 283.62 165.59 269.61 165.59C267.38 165.6 265.29 165.27 263.33 164.61Z"/><path d="M298.35 164.61C296.39 163.95 294.68 162.88 293.2 161.4 291.73 159.93 290.57 157.99 289.73 155.58 288.89 153.17 288.46 150.23 288.46 146.74 288.46 143.26 288.88 140.31 289.73 137.9 290.57 135.49 291.73 133.55 293.2 132.08 294.67 130.61 296.39 129.54 298.35 128.87 300.31 128.21 302.4 127.87 304.63 127.87L318.64 127.87 318.64 134.34 305.71 134.34C304.53 134.34 303.41 134.49 302.37 134.8 301.33 135.11 300.39 135.61 299.54 136.31 298.7 137.01 297.98 137.94 297.39 139.11 296.8 140.28 296.39 141.74 296.18 143.5L318.65 143.5 318.65 149.96 296.18 149.96C296.4 151.72 296.8 153.18 297.39 154.35 297.98 155.52 298.7 156.45 299.54 157.15 300.38 157.85 301.33 158.35 302.37 158.66 303.41 158.97 304.53 159.12 305.71 159.12L318.64 159.12 318.64 165.59 304.63 165.59C302.4 165.6 300.31 165.27 298.35 164.61Z"/><path d="M325.1 127.89 347.46 127.89C349.11 127.89 350.67 128.09 352.15 128.48 353.62 128.88 354.92 129.51 356.03 130.39 357.14 131.27 358.01 132.44 358.64 133.89 359.27 135.34 359.58 137.11 359.58 139.2 359.58 141.03 359.36 142.62 358.93 143.97 358.5 145.32 357.9 146.46 357.13 147.39 356.36 148.32 355.44 149.06 354.38 149.6 353.32 150.14 352.18 150.53 350.96 150.78L359.53 165.6 350.8 165.6 342.83 151.05 332.65 151.05 332.65 165.6 325.11 165.6 325.11 127.89ZM347.46 144.59C348.72 144.59 349.79 144.2 350.69 143.43 351.59 142.66 352.04 141.25 352.04 139.2 352.04 137.4 351.59 136.15 350.69 135.43 349.79 134.71 348.71 134.35 347.46 134.35L332.64 134.35 332.64 144.59 347.46 144.59Z"/><path d=""/><g><path d="M243.31 12.25 238.83 21.69C250.5 26.03 258.81 37.27 258.81 50.45 258.81 67.39 245.08 81.13 228.13 81.13 224.4 81.13 220.84 80.46 217.54 79.24 217.06 79.06 216.58 78.87 216.11 78.67 215.89 78.58 215.67 78.48 215.45 78.38 215.01 78.18 214.58 77.97 214.16 77.75 213.93 77.63 213.7 77.51 213.48 77.39 213.07 77.16 212.66 76.93 212.26 76.69 212.04 76.56 211.82 76.41 211.61 76.28 211.31 76.09 211.02 75.89 210.73 75.69 210.6 75.6 210.46 75.51 210.33 75.42 210.33 75.42 210.33 75.42 210.33 75.43 210.31 75.42 210.3 75.41 210.28 75.4 209.8 76.1 209.3 76.77 208.79 77.44 206.8 79.91 204.61 82.25 203.52 83.38 203.52 83.38 203.53 83.38 203.53 83.39 191.37 95.25 174.18 100.72 157.39 96.34 155.64 95.88 153.94 95.32 152.28 94.68 156.79 98.72 162.14 101.72 168.18 103.29 183.82 107.38 200.09 100.97 211.44 88.03 216.54 90.31 222.2 91.58 228.15 91.58 250.85 91.58 269.25 73.18 269.25 50.48 269.23 33.11 258.49 18.29 243.31 12.25Z"/></g><g><path d="M210.22 58.79 210.23 58.79 210.18 58.75Z"/><path d="M182.88 33.21 182.85 33.17 182.84 33.17Z"/><path d="M214.8 35.54C218.48 33.42 222.05 30.62 225.46 26.97 233.03 18.88 237.38 9.31 238.22 0.59 229.57 2 220.31 6.98 212.74 15.07 209.33 18.72 206.76 22.46 204.9 26.28L188.58 26.2 182.07 33.15 196.3 34.87C196.3 34.87 196.99 37.86 192.6 41.76L200.15 48.82C203.75 44.19 206.78 44.67 206.78 44.67L209.45 58.76 215.96 51.81 214.8 35.54Z"/></g><path d="M186.48 48.74C185.42 49.92 173.27 63.34 168.85 67.31 161.18 74.2 151.88 79.75 148.72 81.02 145.23 82.42 141.38 83.46 137.4 83.8 136.55 83.91 135.87 83.96 135.39 83.97 128.86 84.2 122.7 82.21 117.58 78.7 117.54 78.67 117.49 78.64 117.45 78.61 117.17 78.41 116.88 78.22 116.61 78.01 112.28 74.84 108.82 70.57 106.63 65.6 106.57 65.47 106.51 65.34 106.45 65.2 106.44 65.17 106.42 65.13 106.41 65.1 104.84 61.43 103.96 57.42 103.96 53.26 103.97 43.32 108.71 34.5 116.04 28.9 121.21 24.93 127.68 22.56 134.7 22.56 141.74 22.56 148.22 24.94 153.4 28.93 153.45 28.86 153.5 28.8 153.56 28.73 166.74 10.21 189.24 1.7 208.91 9.37 204.78 6.06 200.03 3.58 194.74 2.19 179.57-1.79 163.79 4.11 152.49 16.27 147.1 13.66 141.06 12.19 134.68 12.18 111.98 12.16 93.56 30.54 93.54 53.24 93.52 75.73 111.57 94 133.98 94.36 147.82 94.64 160.15 87.42 168.47 81.22 176.7 75.08 191.46 58.73 193.98 55.91 190.65 57.13 187.59 57.88 184.98 58.05 184.9 55.61 185.43 52.4 186.48 48.74Z"/></svg>